<mxfile host="app.diagrams.net" modified="2024-03-23T02:09:09.028Z" agent="Mozilla/5.0 (Windows NT 10.0; Win64; x64) AppleWebKit/537.36 (KHTML, like Gecko) Chrome/123.0.0.0 Safari/537.36" etag="rRcTQx2kAKYoXOSzBFcC" version="22.0.0" type="github">
  <diagram id="C5RBs43oDa-KdzZeNtuy" name="Page-1">
    <mxGraphModel dx="993" dy="514" grid="1" gridSize="10" guides="1" tooltips="1" connect="1" arrows="1" fold="1" page="1" pageScale="1" pageWidth="827" pageHeight="1169" math="0" shadow="0">
      <root>
        <mxCell id="WIyWlLk6GJQsqaUBKTNV-0" />
        <mxCell id="WIyWlLk6GJQsqaUBKTNV-1" parent="WIyWlLk6GJQsqaUBKTNV-0" />
        <mxCell id="WIyWlLk6GJQsqaUBKTNV-3" value="&lt;span id=&quot;selected_text&quot;&gt;&lt;/span&gt;Grade(score)" style="rounded=1;whiteSpace=wrap;html=1;fontSize=12;glass=0;strokeWidth=1;shadow=0;" parent="WIyWlLk6GJQsqaUBKTNV-1" vertex="1">
          <mxGeometry x="160" y="80" width="120" height="40" as="geometry" />
        </mxCell>
        <mxCell id="-9kJ9Q-LKWFbZZimXgtn-3" value="" style="endArrow=classic;html=1;rounded=0;" edge="1" parent="WIyWlLk6GJQsqaUBKTNV-1">
          <mxGeometry width="50" height="50" relative="1" as="geometry">
            <mxPoint x="219.66" y="120" as="sourcePoint" />
            <mxPoint x="219.66" y="170" as="targetPoint" />
          </mxGeometry>
        </mxCell>
        <mxCell id="-9kJ9Q-LKWFbZZimXgtn-5" value="int res" style="rounded=1;whiteSpace=wrap;html=1;" vertex="1" parent="WIyWlLk6GJQsqaUBKTNV-1">
          <mxGeometry x="160" y="170" width="120" height="30" as="geometry" />
        </mxCell>
        <mxCell id="-9kJ9Q-LKWFbZZimXgtn-6" value="" style="endArrow=classic;html=1;rounded=0;" edge="1" parent="WIyWlLk6GJQsqaUBKTNV-1">
          <mxGeometry width="50" height="50" relative="1" as="geometry">
            <mxPoint x="219.66" y="200" as="sourcePoint" />
            <mxPoint x="219.66" y="250" as="targetPoint" />
          </mxGeometry>
        </mxCell>
        <mxCell id="-9kJ9Q-LKWFbZZimXgtn-7" value="score &amp;lt; 0 || score &amp;gt; 10" style="rhombus;whiteSpace=wrap;html=1;" vertex="1" parent="WIyWlLk6GJQsqaUBKTNV-1">
          <mxGeometry x="140" y="250" width="160" height="80" as="geometry" />
        </mxCell>
        <mxCell id="-9kJ9Q-LKWFbZZimXgtn-8" value="" style="endArrow=classic;html=1;rounded=0;" edge="1" parent="WIyWlLk6GJQsqaUBKTNV-1">
          <mxGeometry width="50" height="50" relative="1" as="geometry">
            <mxPoint x="300" y="290" as="sourcePoint" />
            <mxPoint x="350" y="290" as="targetPoint" />
          </mxGeometry>
        </mxCell>
        <mxCell id="-9kJ9Q-LKWFbZZimXgtn-9" value="&lt;span id=&quot;selected_text&quot;&gt;&lt;/span&gt;&lt;span id=&quot;selected_text&quot;&gt;&lt;/span&gt;&lt;span id=&quot;selected_text&quot;&gt;&lt;/span&gt;&lt;span id=&quot;selected_text&quot;&gt;&lt;/span&gt;return &#39;I&#39;" style="rounded=1;whiteSpace=wrap;html=1;" vertex="1" parent="WIyWlLk6GJQsqaUBKTNV-1">
          <mxGeometry x="350" y="270" width="90" height="40" as="geometry" />
        </mxCell>
        <mxCell id="-9kJ9Q-LKWFbZZimXgtn-10" value="&lt;span id=&quot;selected_text&quot;&gt;&lt;/span&gt;&lt;b&gt;&lt;span id=&quot;selected_text&quot;&gt;&lt;/span&gt;T&lt;/b&gt;" style="text;html=1;align=center;verticalAlign=middle;resizable=0;points=[];autosize=1;strokeColor=none;fillColor=none;" vertex="1" parent="WIyWlLk6GJQsqaUBKTNV-1">
          <mxGeometry x="300" y="260" width="30" height="30" as="geometry" />
        </mxCell>
        <mxCell id="-9kJ9Q-LKWFbZZimXgtn-11" value="" style="endArrow=classic;html=1;rounded=0;" edge="1" parent="WIyWlLk6GJQsqaUBKTNV-1">
          <mxGeometry width="50" height="50" relative="1" as="geometry">
            <mxPoint x="219.66" y="330" as="sourcePoint" />
            <mxPoint x="219.66" y="380" as="targetPoint" />
          </mxGeometry>
        </mxCell>
        <mxCell id="-9kJ9Q-LKWFbZZimXgtn-13" value="&lt;b&gt;F&lt;/b&gt;" style="text;html=1;align=center;verticalAlign=middle;resizable=0;points=[];autosize=1;strokeColor=none;fillColor=none;" vertex="1" parent="WIyWlLk6GJQsqaUBKTNV-1">
          <mxGeometry x="190" y="330" width="30" height="30" as="geometry" />
        </mxCell>
        <mxCell id="-9kJ9Q-LKWFbZZimXgtn-15" value="&lt;span id=&quot;selected_text&quot;&gt;&lt;/span&gt;&lt;span id=&quot;selected_text&quot;&gt;&lt;/span&gt;score &amp;gt;= 9" style="rhombus;whiteSpace=wrap;html=1;" vertex="1" parent="WIyWlLk6GJQsqaUBKTNV-1">
          <mxGeometry x="140" y="380" width="160" height="80" as="geometry" />
        </mxCell>
        <mxCell id="-9kJ9Q-LKWFbZZimXgtn-16" value="" style="endArrow=classic;html=1;rounded=0;" edge="1" parent="WIyWlLk6GJQsqaUBKTNV-1">
          <mxGeometry width="50" height="50" relative="1" as="geometry">
            <mxPoint x="300" y="420" as="sourcePoint" />
            <mxPoint x="350" y="420" as="targetPoint" />
          </mxGeometry>
        </mxCell>
        <mxCell id="-9kJ9Q-LKWFbZZimXgtn-17" value="&lt;span id=&quot;selected_text&quot;&gt;&lt;/span&gt;&lt;span id=&quot;selected_text&quot;&gt;&lt;/span&gt;&lt;span id=&quot;selected_text&quot;&gt;&lt;/span&gt;&lt;span id=&quot;selected_text&quot;&gt;&lt;/span&gt;&lt;span id=&quot;selected_text&quot;&gt;&lt;/span&gt;&lt;span id=&quot;selected_text&quot;&gt;&lt;/span&gt;&lt;span id=&quot;selected_text&quot;&gt;&lt;/span&gt;&lt;span id=&quot;selected_text&quot;&gt;&lt;/span&gt;res = &#39;A&#39;" style="rounded=1;whiteSpace=wrap;html=1;" vertex="1" parent="WIyWlLk6GJQsqaUBKTNV-1">
          <mxGeometry x="350" y="400" width="90" height="40" as="geometry" />
        </mxCell>
        <mxCell id="-9kJ9Q-LKWFbZZimXgtn-18" value="&lt;span id=&quot;selected_text&quot;&gt;&lt;/span&gt;&lt;b&gt;&lt;span id=&quot;selected_text&quot;&gt;&lt;/span&gt;T&lt;/b&gt;" style="text;html=1;align=center;verticalAlign=middle;resizable=0;points=[];autosize=1;strokeColor=none;fillColor=none;" vertex="1" parent="WIyWlLk6GJQsqaUBKTNV-1">
          <mxGeometry x="300" y="390" width="30" height="30" as="geometry" />
        </mxCell>
        <mxCell id="-9kJ9Q-LKWFbZZimXgtn-19" value="" style="endArrow=classic;html=1;rounded=0;" edge="1" parent="WIyWlLk6GJQsqaUBKTNV-1">
          <mxGeometry width="50" height="50" relative="1" as="geometry">
            <mxPoint x="219.66" y="460" as="sourcePoint" />
            <mxPoint x="219.66" y="510" as="targetPoint" />
          </mxGeometry>
        </mxCell>
        <mxCell id="-9kJ9Q-LKWFbZZimXgtn-20" value="&lt;b&gt;F&lt;/b&gt;" style="text;html=1;align=center;verticalAlign=middle;resizable=0;points=[];autosize=1;strokeColor=none;fillColor=none;" vertex="1" parent="WIyWlLk6GJQsqaUBKTNV-1">
          <mxGeometry x="190" y="460" width="30" height="30" as="geometry" />
        </mxCell>
        <mxCell id="-9kJ9Q-LKWFbZZimXgtn-21" value="&lt;span id=&quot;selected_text&quot;&gt;&lt;/span&gt;&lt;span id=&quot;selected_text&quot;&gt;&lt;/span&gt;score &amp;gt;= 8" style="rhombus;whiteSpace=wrap;html=1;" vertex="1" parent="WIyWlLk6GJQsqaUBKTNV-1">
          <mxGeometry x="140" y="510" width="160" height="80" as="geometry" />
        </mxCell>
        <mxCell id="-9kJ9Q-LKWFbZZimXgtn-22" value="" style="endArrow=classic;html=1;rounded=0;" edge="1" parent="WIyWlLk6GJQsqaUBKTNV-1">
          <mxGeometry width="50" height="50" relative="1" as="geometry">
            <mxPoint x="300" y="550" as="sourcePoint" />
            <mxPoint x="350" y="550" as="targetPoint" />
          </mxGeometry>
        </mxCell>
        <mxCell id="-9kJ9Q-LKWFbZZimXgtn-23" value="&lt;span id=&quot;selected_text&quot;&gt;&lt;/span&gt;&lt;span id=&quot;selected_text&quot;&gt;&lt;/span&gt;&lt;span id=&quot;selected_text&quot;&gt;&lt;/span&gt;&lt;span id=&quot;selected_text&quot;&gt;&lt;/span&gt;&lt;span id=&quot;selected_text&quot;&gt;&lt;/span&gt;&lt;span id=&quot;selected_text&quot;&gt;&lt;/span&gt;&lt;span id=&quot;selected_text&quot;&gt;&lt;/span&gt;&lt;span id=&quot;selected_text&quot;&gt;&lt;/span&gt;&lt;span id=&quot;selected_text&quot;&gt;&lt;/span&gt;res = &#39;B&#39;" style="rounded=1;whiteSpace=wrap;html=1;" vertex="1" parent="WIyWlLk6GJQsqaUBKTNV-1">
          <mxGeometry x="350" y="530" width="90" height="40" as="geometry" />
        </mxCell>
        <mxCell id="-9kJ9Q-LKWFbZZimXgtn-24" value="&lt;span id=&quot;selected_text&quot;&gt;&lt;/span&gt;&lt;b&gt;&lt;span id=&quot;selected_text&quot;&gt;&lt;/span&gt;T&lt;/b&gt;" style="text;html=1;align=center;verticalAlign=middle;resizable=0;points=[];autosize=1;strokeColor=none;fillColor=none;" vertex="1" parent="WIyWlLk6GJQsqaUBKTNV-1">
          <mxGeometry x="300" y="520" width="30" height="30" as="geometry" />
        </mxCell>
        <mxCell id="-9kJ9Q-LKWFbZZimXgtn-25" value="" style="endArrow=classic;html=1;rounded=0;" edge="1" parent="WIyWlLk6GJQsqaUBKTNV-1">
          <mxGeometry width="50" height="50" relative="1" as="geometry">
            <mxPoint x="219.66" y="590" as="sourcePoint" />
            <mxPoint x="219.66" y="640" as="targetPoint" />
          </mxGeometry>
        </mxCell>
        <mxCell id="-9kJ9Q-LKWFbZZimXgtn-26" value="&lt;b&gt;F&lt;/b&gt;" style="text;html=1;align=center;verticalAlign=middle;resizable=0;points=[];autosize=1;strokeColor=none;fillColor=none;" vertex="1" parent="WIyWlLk6GJQsqaUBKTNV-1">
          <mxGeometry x="190" y="590" width="30" height="30" as="geometry" />
        </mxCell>
        <mxCell id="-9kJ9Q-LKWFbZZimXgtn-27" value="&lt;span id=&quot;selected_text&quot;&gt;&lt;/span&gt;&lt;span id=&quot;selected_text&quot;&gt;&lt;/span&gt;score &amp;gt;= 6.5" style="rhombus;whiteSpace=wrap;html=1;" vertex="1" parent="WIyWlLk6GJQsqaUBKTNV-1">
          <mxGeometry x="140" y="640" width="160" height="80" as="geometry" />
        </mxCell>
        <mxCell id="-9kJ9Q-LKWFbZZimXgtn-28" value="" style="endArrow=classic;html=1;rounded=0;" edge="1" parent="WIyWlLk6GJQsqaUBKTNV-1">
          <mxGeometry width="50" height="50" relative="1" as="geometry">
            <mxPoint x="300" y="680" as="sourcePoint" />
            <mxPoint x="350" y="680" as="targetPoint" />
          </mxGeometry>
        </mxCell>
        <mxCell id="-9kJ9Q-LKWFbZZimXgtn-29" value="res = &#39;C&#39;" style="rounded=1;whiteSpace=wrap;html=1;" vertex="1" parent="WIyWlLk6GJQsqaUBKTNV-1">
          <mxGeometry x="350" y="660" width="90" height="40" as="geometry" />
        </mxCell>
        <mxCell id="-9kJ9Q-LKWFbZZimXgtn-30" value="&lt;span id=&quot;selected_text&quot;&gt;&lt;/span&gt;&lt;b&gt;&lt;span id=&quot;selected_text&quot;&gt;&lt;/span&gt;T&lt;/b&gt;" style="text;html=1;align=center;verticalAlign=middle;resizable=0;points=[];autosize=1;strokeColor=none;fillColor=none;" vertex="1" parent="WIyWlLk6GJQsqaUBKTNV-1">
          <mxGeometry x="300" y="650" width="30" height="30" as="geometry" />
        </mxCell>
        <mxCell id="-9kJ9Q-LKWFbZZimXgtn-31" value="" style="endArrow=classic;html=1;rounded=0;" edge="1" parent="WIyWlLk6GJQsqaUBKTNV-1">
          <mxGeometry width="50" height="50" relative="1" as="geometry">
            <mxPoint x="219.66" y="720" as="sourcePoint" />
            <mxPoint x="219.66" y="770" as="targetPoint" />
          </mxGeometry>
        </mxCell>
        <mxCell id="-9kJ9Q-LKWFbZZimXgtn-32" value="&lt;b&gt;F&lt;/b&gt;" style="text;html=1;align=center;verticalAlign=middle;resizable=0;points=[];autosize=1;strokeColor=none;fillColor=none;" vertex="1" parent="WIyWlLk6GJQsqaUBKTNV-1">
          <mxGeometry x="190" y="720" width="30" height="30" as="geometry" />
        </mxCell>
        <mxCell id="-9kJ9Q-LKWFbZZimXgtn-33" value="&lt;span id=&quot;selected_text&quot;&gt;&lt;/span&gt;&lt;span id=&quot;selected_text&quot;&gt;&lt;/span&gt;score &amp;gt;= 5" style="rhombus;whiteSpace=wrap;html=1;" vertex="1" parent="WIyWlLk6GJQsqaUBKTNV-1">
          <mxGeometry x="140" y="770" width="160" height="80" as="geometry" />
        </mxCell>
        <mxCell id="-9kJ9Q-LKWFbZZimXgtn-34" value="" style="endArrow=classic;html=1;rounded=0;" edge="1" parent="WIyWlLk6GJQsqaUBKTNV-1">
          <mxGeometry width="50" height="50" relative="1" as="geometry">
            <mxPoint x="300" y="810" as="sourcePoint" />
            <mxPoint x="350" y="810" as="targetPoint" />
          </mxGeometry>
        </mxCell>
        <mxCell id="-9kJ9Q-LKWFbZZimXgtn-50" style="edgeStyle=orthogonalEdgeStyle;rounded=0;orthogonalLoop=1;jettySize=auto;html=1;exitX=1;exitY=0.5;exitDx=0;exitDy=0;entryX=0.5;entryY=1;entryDx=0;entryDy=0;" edge="1" parent="WIyWlLk6GJQsqaUBKTNV-1" source="-9kJ9Q-LKWFbZZimXgtn-35" target="-9kJ9Q-LKWFbZZimXgtn-46">
          <mxGeometry relative="1" as="geometry" />
        </mxCell>
        <mxCell id="-9kJ9Q-LKWFbZZimXgtn-35" value="res = &#39;D&#39;" style="rounded=1;whiteSpace=wrap;html=1;" vertex="1" parent="WIyWlLk6GJQsqaUBKTNV-1">
          <mxGeometry x="350" y="790" width="90" height="40" as="geometry" />
        </mxCell>
        <mxCell id="-9kJ9Q-LKWFbZZimXgtn-36" value="&lt;span id=&quot;selected_text&quot;&gt;&lt;/span&gt;&lt;b&gt;&lt;span id=&quot;selected_text&quot;&gt;&lt;/span&gt;T&lt;/b&gt;" style="text;html=1;align=center;verticalAlign=middle;resizable=0;points=[];autosize=1;strokeColor=none;fillColor=none;" vertex="1" parent="WIyWlLk6GJQsqaUBKTNV-1">
          <mxGeometry x="300" y="780" width="30" height="30" as="geometry" />
        </mxCell>
        <mxCell id="-9kJ9Q-LKWFbZZimXgtn-37" value="" style="endArrow=classic;html=1;rounded=0;" edge="1" parent="WIyWlLk6GJQsqaUBKTNV-1">
          <mxGeometry width="50" height="50" relative="1" as="geometry">
            <mxPoint x="219.65999999999997" y="850" as="sourcePoint" />
            <mxPoint x="219.65999999999997" y="900" as="targetPoint" />
          </mxGeometry>
        </mxCell>
        <mxCell id="-9kJ9Q-LKWFbZZimXgtn-38" value="&lt;b&gt;F&lt;/b&gt;" style="text;html=1;align=center;verticalAlign=middle;resizable=0;points=[];autosize=1;strokeColor=none;fillColor=none;" vertex="1" parent="WIyWlLk6GJQsqaUBKTNV-1">
          <mxGeometry x="190" y="850" width="30" height="30" as="geometry" />
        </mxCell>
        <mxCell id="-9kJ9Q-LKWFbZZimXgtn-51" style="edgeStyle=orthogonalEdgeStyle;rounded=0;orthogonalLoop=1;jettySize=auto;html=1;exitX=1;exitY=0.5;exitDx=0;exitDy=0;" edge="1" parent="WIyWlLk6GJQsqaUBKTNV-1" source="-9kJ9Q-LKWFbZZimXgtn-45">
          <mxGeometry relative="1" as="geometry">
            <mxPoint x="640" y="680" as="targetPoint" />
          </mxGeometry>
        </mxCell>
        <mxCell id="-9kJ9Q-LKWFbZZimXgtn-45" value="&lt;span id=&quot;selected_text&quot;&gt;&lt;/span&gt;&lt;span id=&quot;selected_text&quot;&gt;&lt;/span&gt;&lt;span id=&quot;selected_text&quot;&gt;&lt;/span&gt;&lt;span id=&quot;selected_text&quot;&gt;&lt;/span&gt;&lt;span id=&quot;selected_text&quot;&gt;&lt;/span&gt;&lt;span id=&quot;selected_text&quot;&gt;&lt;/span&gt;res = &#39;F&#39;" style="rounded=1;whiteSpace=wrap;html=1;" vertex="1" parent="WIyWlLk6GJQsqaUBKTNV-1">
          <mxGeometry x="175" y="900" width="90" height="40" as="geometry" />
        </mxCell>
        <mxCell id="-9kJ9Q-LKWFbZZimXgtn-46" value="return res" style="rounded=1;whiteSpace=wrap;html=1;" vertex="1" parent="WIyWlLk6GJQsqaUBKTNV-1">
          <mxGeometry x="580" y="620" width="120" height="60" as="geometry" />
        </mxCell>
        <mxCell id="-9kJ9Q-LKWFbZZimXgtn-47" value="" style="endArrow=classic;html=1;rounded=0;entryX=0.5;entryY=0;entryDx=0;entryDy=0;" edge="1" parent="WIyWlLk6GJQsqaUBKTNV-1" target="-9kJ9Q-LKWFbZZimXgtn-46">
          <mxGeometry width="50" height="50" relative="1" as="geometry">
            <mxPoint x="440" y="420" as="sourcePoint" />
            <mxPoint x="640" y="420" as="targetPoint" />
            <Array as="points">
              <mxPoint x="640" y="420" />
            </Array>
          </mxGeometry>
        </mxCell>
        <mxCell id="-9kJ9Q-LKWFbZZimXgtn-48" value="" style="endArrow=classic;html=1;rounded=0;" edge="1" parent="WIyWlLk6GJQsqaUBKTNV-1">
          <mxGeometry width="50" height="50" relative="1" as="geometry">
            <mxPoint x="440" y="550" as="sourcePoint" />
            <mxPoint x="640" y="620" as="targetPoint" />
            <Array as="points">
              <mxPoint x="640" y="550" />
            </Array>
          </mxGeometry>
        </mxCell>
        <mxCell id="-9kJ9Q-LKWFbZZimXgtn-49" style="edgeStyle=orthogonalEdgeStyle;rounded=0;orthogonalLoop=1;jettySize=auto;html=1;exitX=1;exitY=0.5;exitDx=0;exitDy=0;entryX=-0.023;entryY=0.379;entryDx=0;entryDy=0;entryPerimeter=0;" edge="1" parent="WIyWlLk6GJQsqaUBKTNV-1" source="-9kJ9Q-LKWFbZZimXgtn-29" target="-9kJ9Q-LKWFbZZimXgtn-46">
          <mxGeometry relative="1" as="geometry" />
        </mxCell>
      </root>
    </mxGraphModel>
  </diagram>
</mxfile>
